# xmcd CD database file
# 
# Track frame offsets:
# 	150
# 	11476
# 	21767
# 	30933
# 	42212
# 	53073
# 	64279
# 	75333
# 	86409
# 	96968
# 	107609
# 	118687
# 	129243
# 	140666
# 	151896
# 	163175
# 	175589
# 	189807
# 
# Disc length: 2686 seconds
# 
# Submitted via: Nero 5.5.10.28
# 
# Revision: 0
# Processed by: cddbd v1.4PL0 Copyright (c) Steve Scherf et al.
#
DISCID=d20a7c12
DTITLE=Patsy Cline - With Love
DYEAR=1900
DGENRE=
TTITLE0=Walkin' After Midnight
TTITLE1=I Love You, Honey
TTITLE2=Come On In (And Make Yourself At Home)
TTITLE3=A Church, A Courtroom, And Then Goodbye
TTITLE4=Stop The World
TTITLE5=Crazy Dreams
TTITLE6=Hungry For Love
TTITLE7=Just Out Of Reach
TTITLE8=Honky Tonk Merry Go Round
TTITLE9=I Cried All The Way To The Alter
TTITLE10=Cry Not For Me
TTITLE11=I Can See An Angel
TTITLE12=Never No More
TTITLE13=Hidin' Out
TTITLE14=The Heart You Break May Be Your Own
TTITLE15=Fingerprints
TTITLE16=Then You'll Know
TTITLE17=Today, Tomorrow And Forever
EXTD=
EXTT0=
EXTT1=
EXTT2=
EXTT3=
EXTT4=
EXTT5=
EXTT6=
EXTT7=
EXTT8=
EXTT9=
EXTT10=
EXTT11=
EXTT12=
EXTT13=
EXTT14=
EXTT15=
EXTT16=
EXTT17=
PLAYORDER=
